<svg width="57" height="48" viewBox="0 0 57 48" fill="none" xmlns="http://www.w3.org/2000/svg">
<path d="M2.375 2H11.875L18.24 28.78C18.4572 29.7008 19.052 30.5279 19.9204 31.1166C20.7888 31.7053 21.8754 32.018 22.99 32H46.075C47.1896 32.018 48.2762 31.7053 49.1446 31.1166C50.013 30.5279 50.6078 29.7008 50.825 28.78L54.625 12H14.25M23.75 42C23.75 43.1046 22.6867 44 21.375 44C20.0633 44 19 43.1046 19 42C19 40.8954 20.0633 40 21.375 40C22.6867 40 23.75 40.8954 23.75 42ZM49.875 42C49.875 43.1046 48.8117 44 47.5 44C46.1883 44 45.125 43.1046 45.125 42C45.125 40.8954 46.1883 40 47.5 40C48.8117 40 49.875 40.8954 49.875 42Z" stroke="#1E1E1E" stroke-width="4" stroke-linecap="round" stroke-linejoin="round"/>
</svg>
